<?xml version="1.0" encoding="utf-8"?>
<!-- Generator: Adobe Illustrator 27.3.1, SVG Export Plug-In . SVG Version: 6.00 Build 0)  -->
<svg version="1.1" id="Layer_1" xmlns="http://www.w3.org/2000/svg" xmlns:xlink="http://www.w3.org/1999/xlink" x="0px" y="0px"
	 viewBox="0 0 368.5 228.6" style="enable-background:new 0 0 368.5 228.6;" xml:space="preserve">
<style type="text/css">
	.st0{fill-rule:evenodd;clip-rule:evenodd;fill:#E2000F;}
	
		.st1{clip-path:url(#SVGID_00000121989168973706661600000011446849085564904359_);fill:url(#SVGID_00000012469569608459357170000005861762384646399887_);}
	.st2{fill:#FFFFFF;}
</style>
<path class="st0" d="M92.3,189.7c0,0,4.1,9.1,11,13.9c6.9,4.9,17.2,5.8,25.3,6.1c8.1,0.3,32.1,0.3,32.1,0.3s6.1-0.3,9.3,3.4
	c3.2,3.7,7.9,7,14.2,7.3c6.4,0.3,10.3-3,13-5.7c2.7-2.7,7.2-5,14.1-4.7c6.9,0.3,32.9,0,32.9,0s24.6-0.8,31.4-20.4h38.9
	c0,0,14.3-3.1,15.1-15.9l0.8-48.6c0,0,3.5-3.6,3.4-10.8c0.1-7.2-3.4-10.8-3.4-10.8l-0.7-48.6c-0.8-12.9-15.1-15.9-15.1-15.9h-38.9
	c-6.8-19.6-31.4-20.4-31.4-20.4s-26-0.3-32.9,0c-6.9,0.3-11.4-2-14.1-4.7c-2.7-2.7-6.6-6-13-5.7s-11,3.6-14.2,7.3
	c-3.2,3.7-9.3,3.4-9.3,3.4s-24,0-32.1,0.3c-8.1,0.3-18.4,1.2-25.3,6.1c-6.9,4.9-11,13.9-11,13.9s-26.6-0.4-39,1
	c-12.4,1.4-14.2,15.2-14.2,15.2l0,48.8c-4,2.1-4.4,10.2-4.4,10.2s0.4,8.1,4.4,10.2l0,48.8c0,0,1.7,13.9,14.2,15.2
	C65.7,190,92.3,189.7,92.3,189.7"/>
<g>
	<g>
		<defs>
			<path id="SVGID_1_" d="M160.4,199.1c6.4-0.2,13.4,2.2,17.7,7c1.8,2,3.8,3.5,6.6,3.6c2.2,0.1,3.4-1.1,4.9-2.5
				c5.9-5.9,14-8.2,22.2-7.9c10.6,0.4,21.6,0.1,32.3-0.1c2.9-0.1,6.9-1.1,9.6-2.1c5.4-2,9.9-5.4,11.8-11l2.5-7.3h45.1
				c2.6-0.9,5.4-2.7,5.7-5.6l0.8-52.6l2.7-2.7c0.5-0.9,0.7-2.4,0.7-3.3v-0.2v-0.2c0-0.9-0.1-2.5-0.7-3.3l-2.7-2.7l-0.8-52.6
				c-0.3-2.8-3.1-4.7-5.7-5.6h-45.1l-2.5-7.3c-2.9-8.4-13.1-12.7-21.5-13.1c-10.6-0.1-21.7-0.5-32.2-0.1c-8.2,0.3-16.3-2-22.2-7.9
				c-1.5-1.5-2.7-2.6-4.9-2.5c-2.7,0.1-4.8,1.6-6.6,3.6c-4.3,4.8-11.3,7.2-17.7,7c-10.5,0-21.1-0.1-31.5,0.3
				c-5.6,0.2-14.7,0.8-19.4,4.1c-2.8,2-5.9,6.3-7.3,9.5l-2.9,6.5l-7.1-0.1c-4.9-0.1-9.8-0.1-14.6,0c-7.5,0.1-15.6,0.1-23,0.9
				c-2.6,0.3-4,3-4.5,5.4l-0.1,54.4l-4.1,2.2c-0.1,0.5-0.2,1-0.3,1.5c0.1,0.5,0.2,1,0.3,1.5l4.1,2.2l0.1,54.4
				c0.5,2.4,1.9,5.1,4.5,5.4c7.5,0.8,15.5,0.9,23,0.9c4.9,0,9.8,0.1,14.6,0l7.1-0.1l2.9,6.5c1.5,3.2,4.5,7.5,7.3,9.5
				c4.7,3.3,13.8,3.9,19.4,4.1C139.3,199.2,149.9,199.1,160.4,199.1"/>
		</defs>
		<clipPath id="SVGID_00000171687537914907148530000017115764354004842926_">
			<use xlink:href="#SVGID_1_"  style="overflow:visible;"/>
		</clipPath>
		
			<linearGradient id="SVGID_00000103247974956438554050000008661051756246829491_" gradientUnits="userSpaceOnUse" x1="45.4909" y1="114.6854" x2="322.9393" y2="114.6854" gradientTransform="matrix(1 0 0 -1 0 229.1653)">
			<stop  offset="0" style="stop-color:#AE7716"/>
			<stop  offset="0.13" style="stop-color:#F5D780"/>
			<stop  offset="0.25" style="stop-color:#FFFFD5"/>
			<stop  offset="0.37" style="stop-color:#F5D780"/>
			<stop  offset="0.5" style="stop-color:#AE7716"/>
			<stop  offset="0.6" style="stop-color:#F5D780"/>
			<stop  offset="0.61" style="stop-color:#F5D780"/>
			<stop  offset="0.73" style="stop-color:#FFFFD5"/>
			<stop  offset="0.85" style="stop-color:#F5D780"/>
			<stop  offset="1" style="stop-color:#AE7716"/>
		</linearGradient>
		
			<rect x="45.5" y="19.1" style="clip-path:url(#SVGID_00000171687537914907148530000017115764354004842926_);fill:url(#SVGID_00000103247974956438554050000008661051756246829491_);" width="277.4" height="190.7"/>
	</g>
</g>
<path class="st0" d="M243.8,195.7c2.6-0.1,6-1,8.4-1.9c4.4-1.6,8.1-4.2,9.7-8.8l3.4-9.7h47.1c1-0.4,2.6-1.3,2.7-2.2l0.8-53.8
	l3.2-3.3c0.1-0.4,0.1-0.9,0.1-1.2v-0.3v-0.3c0-0.3,0-0.8-0.1-1.2l-3.2-3.3l-0.8-53.8c-0.2-1-1.7-1.8-2.7-2.2h-47.1l-3.4-9.7
	c-2.4-6.9-11.4-10.4-18.2-10.7c-10.6-0.1-21.3-0.5-32-0.1c-9.2,0.4-18.3-2.3-24.9-8.9c-0.5-0.5-1.3-1.5-2.1-1.5
	c-1.7,0.1-2.9,1.2-4,2.4c-5,5.6-13,8.5-20.4,8.2c-10.4,0-20.9-0.1-31.3,0.3c-4.7,0.2-13.5,0.7-17.4,3.4c-2.3,1.6-4.9,5.5-6.1,8.1
	l-3.9,8.7l-9.5-0.1c-4.9-0.1-9.7-0.1-14.6,0c-7.5,0.1-15.2,0.1-22.7,0.9c-0.6,0.1-1.1,1.5-1.3,2.2L53.5,113l-2.7,1.5l2.7,1.5
	l0.1,56.2c0.2,0.7,0.7,2.1,1.3,2.2c7.5,0.8,15.1,0.8,22.7,0.9c4.9,0,9.7,0.1,14.6,0l9.5-0.1l3.9,8.7c1.1,2.6,3.8,6.4,6.1,8
	c3.9,2.8,12.7,3.3,17.4,3.4c10.4,0.3,20.9,0.3,31.3,0.3c7.4-0.2,15.4,2.6,20.4,8.2c1.1,1.2,2.3,2.3,4,2.4c0.8,0,1.6-0.9,2.1-1.5
	c6.6-6.6,15.7-9.3,24.9-8.9C222.5,196.2,233.2,195.8,243.8,195.7"/>
<g>
	<path class="st2" d="M110.9,110.7h-7c0.1-0.4,0.2-1.3,0.2-2.5l-0.1-2.1l-1.3-23l-8.1,22.8c-0.9,2.4-1.4,4-1.5,4.9h-7.5
		c-0.3-1.3-0.7-2.9-1.5-4.9L76.2,83l-1.3,23.2l-0.1,2.5c0,1,0,1.6,0.1,2h-6.6c0.3-0.9,0.5-2.4,0.7-4.7l1.6-28.1l0.1-3l-0.1-1.8h8.8
		c0.2,1.3,0.6,2.8,1.3,4.6l9,25l8.7-24.4c0.2-0.7,0.4-1.3,0.6-2c0.2-0.7,0.4-1.7,0.7-3.1h8.8l0.2,4.9l1.5,28.1
		c0,0.6,0.1,1.1,0.1,1.7c0.1,0.5,0.1,1,0.2,1.4C110.6,109.6,110.7,110.1,110.9,110.7z"/>
	<path class="st2" d="M125.1,110.7h-6.9c0.3-1.2,0.4-2.9,0.4-5.1V78.3c0-2.2-0.1-3.9-0.4-5.2h6.9c0,0,0,0.2-0.1,0.6
		c-0.1,0.4-0.1,0.9-0.2,1.7c-0.1,0.7-0.1,1.7-0.1,2.9v27.3C124.8,108,124.9,109.7,125.1,110.7z"/>
	<path class="st2" d="M169.1,110.7h-8.6c-0.4-0.9-1.4-2.4-2.9-4.5l-18.2-25.3v24.7c0,2.9,0.1,4.6,0.4,5.1H133c0,0,0-0.1,0-0.3
		c0-0.1,0.1-0.5,0.1-1c0.1-0.5,0.1-1.8,0.1-3.8V78.7c0-2.8-0.1-4.6-0.3-5.6h8.6c0.2,0.6,1.2,2.2,3.1,4.7l18,25.2V78.5
		c0-2.5-0.1-4.4-0.3-5.5h6.8c-0.2,0.8-0.3,2.6-0.3,5.5v26.5c0,1.1,0,2.1,0.1,2.9c0,0.8,0.1,1.5,0.1,1.9
		C169.1,110.4,169.1,110.6,169.1,110.7z"/>
	<path class="st2" d="M198.6,110.7h-22c0.1-0.5,0.2-0.9,0.2-1.4c0-0.5,0.1-1.9,0.1-4.4V77.6c0-2.5-0.1-4-0.3-4.5h20.9V79
		c-0.5-0.2-2.2-0.3-4.9-0.3h-9.5v9.8h8.4c2,0,3.4-0.1,4.3-0.2v6.1c-0.8-0.2-2.5-0.3-5.2-0.3h-7.6v11.1h11c2.4,0,3.9-0.1,4.5-0.3
		L198.6,110.7L198.6,110.7z"/>
	<path class="st2" d="M234.9,110.7h-8.9l-2.1-2.5l-12.3-13.5v10.7c0,2.9,0.1,4.7,0.3,5.2H205c0.2-0.7,0.3-2.4,0.3-5.2V78.3
		c0-2.5-0.1-4.3-0.3-5.2c1.3,0,3.3-0.1,6.1-0.4c2.8-0.2,4.9-0.4,6.1-0.4c2.5,0,4.5,0.4,6.2,1.2c1.6,0.8,2.9,1.9,3.7,3.3
		c0.9,1.4,1.3,3.1,1.3,5.2c0,1.8-0.3,3.4-1,5c-0.6,1.5-1.6,2.9-2.8,3.9c-1.5,1.2-3.6,2.2-6.2,2.8l11.3,12.3
		C232.1,108.6,233.8,110.1,234.9,110.7z M222.1,83c0-1.9-0.5-3.3-1.5-4.1c-1-0.8-2.5-1.3-4.5-1.3c-0.9,0-2.4,0.1-4.5,0.3v11.4
		l2.7,0.2c1.6,0,2.9-0.2,4.1-0.7c1.2-0.5,2.1-1.2,2.8-2.2C221.8,85.6,222.1,84.4,222.1,83z"/>
</g>
<g>
	<path class="st2" d="M269,73.1c-0.7,1.1-1.6,3-2.6,5.7L255.9,106c-0.8,2-1.3,3.5-1.7,4.7h-7.7c-0.2-1-0.7-2.6-1.6-4.7l-10.4-27
		c-1.1-2.9-1.9-4.9-2.6-5.8h7.7c0,0.3,0.1,0.9,0.3,1.8s0.6,2,1.1,3.3l9.5,24.9c2-5.1,5.2-13.4,9.6-24.9c0.8-2.1,1.3-3.8,1.5-5.1H269
		z"/>
</g>
<g>
	<path class="st2" d="M301.4,110.7h-7.5c0,0,0-0.1,0-0.3c0-0.1-0.1-0.4-0.1-0.6c-0.1-0.3-0.2-0.7-0.3-1.2c-0.2-0.5-0.4-1.2-0.7-2
		l-2.9-8h-12.7l-2.9,8.3c-0.6,1.6-0.9,2.8-1.1,3.9h-7.4c0.5-0.5,1.2-2.1,2.2-4.9L278.4,77c0.8-2.1,1.1-3.4,1.1-3.9h8.1
		c0,0.5,0.4,1.8,1.1,3.8l10.4,28.7C300.2,108.5,301,110.3,301.4,110.7z M288.3,93.2l-5-13.1l-4.7,13.1H288.3z"/>
</g>
<g>
	<path class="st2" d="M118.8,129.6c-1.1-0.2-2-0.3-2.6-0.3c-0.6,0-1,0-1.2,0h-10.6v9.8h9c2.1,0,3.3-0.1,3.7-0.2v6.1
		c-0.3-0.1-1.5-0.2-3.9-0.2h-8.9v11.8c0,2.9,0.1,4.6,0.2,4.9h-6.8c0.2-0.5,0.3-2.4,0.3-5.5v-27c0-2.8-0.1-4.5-0.3-5.2h21
		L118.8,129.6L118.8,129.6z"/>
	<path class="st2" d="M161.4,142.2c0,2.9-0.4,5.5-1.3,8c-0.9,2.5-2.1,4.6-3.8,6.4c-1.6,1.8-3.7,3.2-6.1,4.2c-2.4,1-5,1.5-7.9,1.5
		c-2.8,0-5.4-0.5-7.8-1.4s-4.4-2.3-6.2-4.1c-1.7-1.8-3.1-3.9-4-6.3c-0.9-2.4-1.4-5-1.4-7.8c0-2.8,0.4-5.5,1.3-8
		c0.9-2.5,2.1-4.6,3.7-6.4c1.6-1.8,3.6-3.2,6-4.2c2.4-1,5-1.5,7.9-1.5c2.8,0,5.5,0.5,7.8,1.4c2.4,1,4.5,2.3,6.2,4.1
		c1.7,1.7,3.1,3.8,4,6.3C160.9,136.8,161.4,139.4,161.4,142.2z M154.8,142.9c0-2.1-0.3-4.1-0.8-5.9c-0.5-1.8-1.4-3.4-2.5-4.7
		c-1.1-1.3-2.5-2.4-4.2-3.1c-1.7-0.7-3.6-1.1-5.8-1.1c-2.6,0-4.8,0.5-6.5,1.6c-1.7,1.1-3.1,2.6-4,4.6c-0.9,2-1.4,4.6-1.4,7.7
		c0,2.1,0.3,4.1,0.8,5.9c0.5,1.8,1.4,3.4,2.5,4.7c1.1,1.3,2.5,2.4,4.2,3.1c1.7,0.7,3.6,1.1,5.7,1.1c2.6,0,4.8-0.5,6.5-1.6
		c1.7-1,3.1-2.6,4-4.6C154.3,148.7,154.8,146.1,154.8,142.9z"/>
	<path class="st2" d="M203.7,142.2c0,2.9-0.4,5.5-1.3,8c-0.9,2.5-2.1,4.6-3.8,6.4c-1.6,1.8-3.7,3.2-6.1,4.2c-2.4,1-5,1.5-7.9,1.5
		c-2.8,0-5.4-0.5-7.8-1.4c-2.4-1-4.4-2.3-6.2-4.1c-1.7-1.8-3.1-3.9-4-6.3c-0.9-2.4-1.4-5-1.4-7.8c0-2.8,0.4-5.5,1.3-8
		c0.9-2.5,2.1-4.6,3.7-6.4c1.6-1.8,3.6-3.2,6-4.2c2.4-1,5-1.5,7.9-1.5c2.8,0,5.5,0.5,7.8,1.4c2.4,1,4.5,2.3,6.2,4.1
		c1.7,1.7,3.1,3.8,4,6.3C203.2,136.8,203.7,139.4,203.7,142.2z M197.1,142.9c0-2.1-0.3-4.1-0.8-5.9c-0.5-1.8-1.4-3.4-2.5-4.7
		c-1.1-1.3-2.5-2.4-4.2-3.1c-1.7-0.7-3.6-1.1-5.8-1.1c-2.6,0-4.8,0.5-6.5,1.6c-1.7,1.1-3.1,2.6-4,4.6c-0.9,2-1.4,4.6-1.4,7.7
		c0,2.1,0.3,4.1,0.8,5.9c0.5,1.8,1.4,3.4,2.5,4.7c1.1,1.3,2.5,2.4,4.2,3.1c1.7,0.7,3.6,1.1,5.7,1.1c2.6,0,4.8-0.5,6.5-1.6
		c1.7-1,3.1-2.6,4-4.6C196.6,148.7,197.1,146.1,197.1,142.9z"/>
	<path class="st2" d="M244.4,141.5c0,2.2-0.3,4.4-1,6.6c-0.6,2.1-1.5,4-2.7,5.7c-3.6,5.1-9.6,7.6-18.1,7.6l-11.6-0.3h-1.5
		c0.1-0.9,0.2-2.8,0.2-5.7v-26.1c0-2.5-0.1-4.5-0.2-5.8h1.7c1.6,0,3.8-0.1,6.9-0.3c3-0.2,5.2-0.3,6.6-0.3c3.1,0,5.7,0.3,7.6,0.8
		c1.5,0.4,2.9,1,4.4,1.8c1.5,0.8,2.8,1.9,3.9,3.3c1.1,1.4,2,3.1,2.7,5.2C244.1,136.2,244.4,138.7,244.4,141.5z M238.1,142
		c0-4.5-1.2-7.9-3.6-10.3c-2.4-2.4-5.9-3.6-10.3-3.6c-3.4,0-6.1,0.2-8.1,0.6v27.2c0.8,0.1,1.8,0.2,3.1,0.3c1.3,0.1,2.3,0.2,3.1,0.2
		c2.6,0,4.9-0.3,6.8-0.8c2-0.5,3.6-1.4,5-2.5c1.3-1.1,2.4-2.6,3.1-4.5C237.8,146.8,238.1,144.6,238.1,142z"/>
	<path class="st2" d="M270.3,151c0,1.2-0.2,2.4-0.5,3.7s-1.1,2.6-2.1,3.8c-1,1.3-2.3,2.2-3.9,2.8s-3.1,1-4.7,1
		c-3.4,0-6.9-0.9-10.4-2.6v-7c0.7,0.8,1.7,1.5,3.1,2.3c1.4,0.8,2.7,1.3,4,1.6c1.3,0.3,2.3,0.5,3.1,0.5c1.7,0,3.1-0.5,4-1.6
		c0.9-1,1.4-2.4,1.4-4.2c0-0.9-0.2-1.7-0.7-2.5c-0.5-0.8-1.1-1.4-1.9-2c-0.8-0.5-2.1-1.3-3.9-2.2c-3.1-1.6-5.2-3-6.2-4
		c-1-1-1.8-2.1-2.3-3.3c-0.5-1.2-0.8-2.6-0.8-4.3c0-1.6,0.2-3,0.7-4.2c0.5-1.2,1.1-2.2,1.9-3.1c0.8-0.9,1.9-1.6,3.3-2.3s3.1-1,5.1-1
		c3.3,0,6.2,0.5,8.7,1.5v6.1c-0.9-0.7-2.1-1.4-3.7-1.9c-1.5-0.5-3.1-0.8-4.6-0.8c-1.6,0-2.9,0.5-3.8,1.4c-0.9,0.9-1.4,2.2-1.4,3.8
		c0,2,1.2,3.7,3.7,5.1c0.4,0.3,1.5,0.8,3.1,1.6c1.6,0.8,3,1.6,4.1,2.4c1.1,0.8,2,1.6,2.7,2.5c0.7,0.9,1.2,1.9,1.6,2.9
		C270.1,148.3,270.3,149.5,270.3,151z"/>
</g>
</svg>
